<svg xmlns="http://www.w3.org/2000/svg" width="24" height="24" viewBox="0 0 24 24"
     aria-labelledby="ShipIcon" stroke="" stroke-width="1.5"
     class="areal-icon-wrapper areal-timeline-rates__segment--icon">
    <g>
        <g>
            <path d="M7.35352 13.5965C7.35352 14.2626 7.35352 14.9287 7.35352 15.5948" stroke-width="1.3"
                  stroke-miterlimit="10" stroke-linecap="round" stroke-linejoin="round"/>
            <path d="M11.9062 1.5C11.9062 2.32435 11.9062 3.14501 11.9062 3.96936" stroke-width="1.3"
                  stroke-miterlimit="10" stroke-linecap="round" stroke-linejoin="round"/>
            <path d="M16.7959 13.5965C16.7959 14.2626 16.7959 14.9287
     16.7959 15.5948" stroke-width="1.3" stroke-miterlimit="10" stroke-linecap="round" stroke-linejoin="round"/>
            <path d="M4.78865 19.1829L2.56055 11.8411L11.9635 9.14728L21.2541
     12.084L19.2134 19.1829" stroke-width="1.3" stroke-miterlimit="10" stroke-linecap="round"
                  stroke-linejoin="round"/>
            <path d="M6.22266 10.785V6.01193C6.22266 4.99622 6.9858
    4.17188 7.9261 4.17188H16.1503C17.0906 4.17188
    17.8537 4.99622 17.8537 6.01193V10.785" stroke-width="1.3" stroke-miterlimit="10" stroke-linecap="round"
                  stroke-linejoin="round"/>
            <path d="M1.83984 20.1619C5.19221 23.2827 9.01473 20.1619
     9.01473 20.1619C9.01473 20.1619 11.9617 23.0177
      15.2084 20.1619C15.2084 20.1619 18.1929 23.3121 22.1585 20.1619" stroke-width="1.3" stroke-miterlimit="10"
                  stroke-linecap="round" stroke-linejoin="round"/>
        </g>
    </g>
</svg>