<svg xmlns="http://www.w3.org/2000/svg" width="24" height="24" viewBox="0 0 24 24"
     aria-labelledby="RailwayIcon" stroke="" stroke-width="1.5"
     class="areal-icon-wrapper areal-timeline-rates__segment--icon">
    <g>
        <g>
            <path d="M20.0026 11.1212C14.668 11.1212 9.33001 11.1212 3.99536 11.1212" stroke-width="1.3"
                  stroke-miterlimit="10"/>
            <path d="M13.9739 5.31424C12.6584 5.31424 11.3429 5.31424 10.0273 5.31424" stroke-width="1.3"
                  stroke-miterlimit="10" stroke-linecap="round" stroke-linejoin="round"/>
            <path d="M8.70027 17.7267C7.13087 18.9117 5.56476 20.0936 3.99536 21.2754" stroke-width="1.3"
                  stroke-miterlimit="10" stroke-linecap="round" stroke-linejoin="round"/>
            <path d="M15.2986 17.7267C16.868 18.9085 18.4341 20.0936 20.0035 21.2754" stroke-width="1.3"
                  stroke-miterlimit="10" stroke-linecap="round" stroke-linejoin="round"/>
            <path d="M16.6858 17.7076H7.31221C5.47904 17.7076 3.99536 16.2702 3.99536 14.4943V5.41333C3.99536
     3.63738 5.47904 2.20001 7.31221 2.20001H16.6858C18.5189 2.20001 20.0026 3.63738 20.0026
      5.41333V14.4943C20.0026 16.2702 18.5189 17.7076 16.6858 17.7076Z" stroke-width="1.3"
                  stroke-miterlimit="10"/>
            <path d="M8.05026 15.542C8.56558 15.542 8.98333 15.1372 8.98333 14.638C8.98333 14.1388 8.56558
     13.7341 8.05026 13.7341C7.53494 13.7341 7.11719 14.1388 7.11719 14.638C7.11719 15.1372
      7.53494 15.542 8.05026 15.542Z" fill="#347AF0"/>
            <path d="M16.2339 15.542C16.7492 15.542 17.1669 15.1372 17.1669 14.638C17.1669 14.1388
     16.7492 13.7341 16.2339 13.7341C15.7185 13.7341 15.3008 14.1388 15.3008
      14.638C15.3008 15.1372 15.7185 15.542 16.2339 15.542Z" fill="#347AF0"/>
        </g>
    </g>
</svg>