<svg xmlns="http://www.w3.org/2000/svg" width="26" height="26" viewBox="0 0 24 24" aria-labelledby="EuroIcon" stroke=""
     stroke-width="1.5" class="areal-icon-wrapper" style="fill: rgb(52, 122, 240);">
    <g>
        <g>
            <path d="M3.63663 9.75H19.2608L18.6242 11.25H3L3.63663 9.75ZM3.63663
     12.75H17.9875L17.3509 14.25H3L3.63663 12.75ZM20.3519
      7.17909C19.3418 6.00004 17.9858 5.15392 16.4679
       4.75556C14.95 4.3572 13.3438 4.42589 11.8671
        4.95231C10.3904 5.47873 9.11485 6.43738
         8.21351 7.69818C7.31216 8.95897 6.82869
          10.4609 6.82869 12C6.82869 13.5391
           7.31216 15.041 8.21351 16.3018C9.11485
            17.5626 10.3904 18.5213 11.8671
             19.0477C13.3438 19.5741 14.95
              19.6428 16.4679 19.2444C17.9858
               18.8461 19.3418 18 20.3519
                16.8209V18.9276C18.9803 20.0417 17.3075
                 20.7413 15.5372 20.9409C13.7669
                  21.1406 11.9755 20.8317 10.3812
                   20.0521C8.78691 19.2724 7.45848
                    18.0554 6.55768 16.5495C5.65688
                     15.0435 5.22259 13.3135 5.3077
                      11.5702C5.3928 9.8268 5.99363
                       8.14527 7.03701 6.73037C8.08039
                        5.31547 9.52131 4.22824
                         11.1843 3.60109C12.8473
                          2.97393 14.6605 2.83392
                           16.4033 3.19809C18.1461
                            3.56226 19.7431 4.4149 21 5.65219L20.3519 7.17909Z"/>
        </g>
    </g>
</svg>