<svg xmlns="http://www.w3.org/2000/svg" width="24" height="24" viewBox="0 0 24 24" aria-labelledby="CarIcon" stroke=""
     stroke-width="1.5" class="areal-icon-wrapper areal-timeline-rates__segment--icon">
    <g>
        <g>
            <path d="M22.2097 11.9269C19.8979 11.9269 17.5826 11.9269 15.2709 11.9269" stroke-width="1.3"
                  stroke-miterlimit="10"/>
            <path d="M15.2724 12.929C10.7459 12.929 6.21931 12.929 1.69275 12.929" stroke-width="1.3"
                  stroke-miterlimit="10"/>
            <path d="M1.69275 3C1.69275 4.59154 1.69275 6.17947 1.69275 7.77101" stroke-width="1.3"
                  stroke-miterlimit="10" stroke-linecap="round" stroke-linejoin="round"/>
            <path d="M15.2709 3C15.2709 4.59154 15.2709 6.17947 15.2709 7.77101" stroke-width="1.3"
                  stroke-miterlimit="10" stroke-linecap="round" stroke-linejoin="round"/>
            <path d="M5.51306 6.59161C5.51306 7.81059 5.51306 9.03318 5.51306 10.2522" stroke-width="1.3"
                  stroke-miterlimit="10" stroke-linecap="round" stroke-linejoin="round"/>
            <path d="M8.48181 6.59161C8.48181 7.81059 8.48181 9.03318 8.48181 10.2522" stroke-width="1.3"
                  stroke-miterlimit="10" stroke-linecap="round" stroke-linejoin="round"/>
            <path d="M11.5599 6.59161C11.5599 7.81059 11.5599 9.03318 11.5599 10.2522" stroke-width="1.3"
                  stroke-miterlimit="10" stroke-linecap="round" stroke-linejoin="round"/>
            <path d="M1.69275 4.284V15.7829C1.69275 16.7812 2.49683 17.5915 3.48758
     17.5915H4.36704C4.35986 17.5263 4.35627 17.4612 4.35627
      17.3925C4.35627 16.1663 5.33984 15.1752 6.55673 15.1752C7.77363
       15.1752 8.75719 16.1663 8.75719 17.3925C8.75719 17.4576 8.7536
        17.5263 8.74643 17.5915H15.2724V4.284H1.69275Z" stroke-width="1.3" stroke-miterlimit="10"/>
            <path d="M6.55459 19.6097C7.76987 19.6097 8.75505 18.617 8.75505
     17.3924C8.75505 16.1678 7.76987 15.1751 6.55459 15.1751C5.33931
      15.1751 4.35413 16.1678 4.35413 17.3924C4.35413 18.617 5.33931
       19.6097 6.55459 19.6097Z" stroke-width="1.3" stroke-miterlimit="10" stroke-linecap="round"
                  stroke-linejoin="round"/>
            <path d="M15.279 17.5878C15.2718 17.5227 15.2682 17.4575 15.2682
     17.3888C15.2682 17.5082 15.2682 17.5805 15.2682 17.5878H15.279Z" stroke-width="1.3" stroke-miterlimit="10"/>
            <path d="M22.0574 11.5833L20.1226 8.30253C19.9287 7.97337 19.5769
     7.77081 19.1964 7.77081H15.2729C15.2729 7.80337 15.2729 11.9305
      15.2729 11.9667C15.2729 12.021 15.2729 16.4049 15.2729 17.3924C15.2729
       16.1662 16.2601 15.1751 17.4734 15.1751C18.6867 15.1751 19.6739 16.1662
        19.6739 17.3924C19.6739 17.4575 19.6703 17.5262 19.6631
         17.5913H20.5138C21.5046 17.5913 22.3087 16.7811 22.3087
          15.7828V12.5093C22.3087 12.1837 22.2225 11.8618 22.0574 11.5833Z" stroke-width="1.3"
                  stroke-miterlimit="10"/>
            <path d="M17.4713 19.6097C18.6866 19.6097 19.6718 18.617 19.6718
     17.3924C19.6718 16.1678 18.6866 15.1751 17.4713 15.1751C16.2561
      15.1751 15.2709 16.1678 15.2709 17.3924C15.2709 18.617 16.2561
       19.6097 17.4713 19.6097Z" stroke-width="1.3" stroke-miterlimit="10" stroke-linecap="round"
                  stroke-linejoin="round"/>
        </g>
    </g>
</svg>